# Wavefront OBJ exported by MilkShape 3D

v 0.126627 -0.015394 0.000504
v 0.109628 -0.015394 0.063504
v 0.063128 -0.015394 0.110004
v 0.000127 -0.015394 0.127004
v -0.062872 -0.015394 0.110004
v -0.109373 -0.015394 0.063504
v -0.126373 -0.015394 0.000504
v -0.109373 -0.015394 -0.062496
v -0.062872 -0.015394 -0.108996
v 0.000127 -0.015394 -0.125996
v 0.063128 -0.015394 -0.108996
v 0.109628 -0.015394 -0.062496
v 0.126627 0.004106 0.000504
v 0.109628 0.004106 0.063504
v 0.063128 0.004106 0.110004
v 0.000127 0.004106 0.127004
v -0.062872 0.004106 0.110004
v -0.109373 0.004106 0.063504
v -0.126373 0.004106 0.000504
v -0.109373 0.004106 -0.062496
v -0.062872 0.004106 -0.108996
v 0.000127 0.004106 -0.125996
v 0.063128 0.004106 -0.108996
v 0.109628 0.004106 -0.062496
v 0.131627 0.011606 0.000504
v 0.114127 0.011606 0.066004
v 0.065628 0.011606 0.114504
v 0.000127 0.011606 0.132004
v -0.065373 0.011606 0.114504
v -0.113873 0.011606 0.066004
v -0.131372 0.011606 0.000504
v -0.113873 0.011606 -0.064996
v -0.065373 0.011606 -0.113496
v 0.000127 0.011606 -0.130996
v 0.065628 0.011606 -0.113496
v 0.114127 0.011606 -0.064996
v 0.128128 0.172606 0.000504
v 0.110627 0.172606 0.064504
v 0.064127 0.172606 0.111004
v 0.000127 0.172606 0.128504
v -0.063873 0.172606 0.111004
v -0.110372 0.172606 0.064504
v -0.127872 0.172606 0.000504
v -0.110372 0.172606 -0.063496
v -0.063873 0.172606 -0.109996
v 0.000127 0.172606 -0.127496
v 0.064127 0.172606 -0.109996
v 0.110627 0.172606 -0.063496
v 0.116627 0.333606 0.000504
v 0.101128 0.333606 0.058504
v 0.058127 0.333606 0.101504
v 0.000127 0.333606 0.117004
v -0.057873 0.333606 0.101504
v -0.100872 0.333606 0.058504
v -0.116373 0.333606 0.000504
v -0.100872 0.333606 -0.057496
v -0.057873 0.333606 -0.100496
v 0.000127 0.333606 -0.115996
v 0.058127 0.333606 -0.100496
v 0.101128 0.333606 -0.057496
v 0.094127 0.494606 0.000504
v 0.081628 0.494606 0.047504
v 0.047128 0.494606 0.082004
v 0.000127 0.494606 0.094504
v -0.046872 0.494606 0.082004
v -0.081373 0.494606 0.047504
v -0.093873 0.494606 0.000504
v -0.081373 0.494606 -0.046496
v -0.046872 0.494606 -0.080996
v 0.000127 0.494606 -0.093496
v 0.047128 0.494606 -0.080996
v 0.081628 0.494606 -0.046496
v 0.067127 0.655606 0.000504
v 0.058127 0.655606 0.034004
v 0.033628 0.655606 0.058504
v 0.000127 0.655606 0.067504
v -0.033373 0.655606 0.058504
v -0.057873 0.655606 0.034004
v -0.066873 0.655606 0.000504
v -0.057873 0.655606 -0.032996
v -0.033373 0.655606 -0.057496
v 0.000127 0.655606 -0.066496
v 0.033628 0.655606 -0.057496
v 0.058127 0.655606 -0.032996
v 0.035627 0.816606 0.000504
v 0.031127 0.816606 0.018504
v 0.018127 0.816606 0.031504
v 0.000127 0.816606 0.036004
v -0.017873 0.816606 0.031504
v -0.030873 0.816606 0.018504
v -0.035373 0.816606 0.000504
v -0.030873 0.816606 -0.017496
v -0.017873 0.816606 -0.030496
v 0.000127 0.816606 -0.034996
v 0.018127 0.816606 -0.030496
v 0.031127 0.816606 -0.017496
v 0.026627 0.828606 0.000504
v 0.023127 0.828606 0.013504
v 0.013127 0.828606 0.023504
v 0.000127 0.828606 0.027004
v -0.012873 0.828606 0.023504
v -0.022873 0.828606 0.013504
v -0.026373 0.828606 0.000504
v -0.022873 0.828606 -0.012496
v -0.012873 0.828606 -0.022496
v 0.000127 0.828606 -0.025996
v 0.013127 0.828606 -0.022496
v 0.023127 0.828606 -0.012496
v 0.010627 0.836606 0.000504
v 0.009127 0.836606 0.006004
v 0.005627 0.836606 0.009504
v 0.000127 0.836606 0.011004
v -0.005373 0.836606 0.009504
v -0.008872 0.836606 0.006004
v -0.010372 0.836606 0.000504
v -0.008872 0.836606 -0.004996
v -0.005373 0.836606 -0.008496
v 0.000127 0.836606 -0.009996
v 0.005627 0.836606 -0.008496
v 0.009127 0.836606 -0.004996
v 0.000127 0.836606 0.000504
v 0.000127 0.836606 0.006004
v 0.000127 0.836606 -0.008496
v 0.000127 0.836606 -0.004996
v 0.000127 0.836606 0.009504
v -0.065373 -0.022894 0.114504
v 0.000127 -0.022894 0.132004
v 0.065628 -0.022894 0.114504
v 0.114127 -0.022894 0.066004
v 0.131627 -0.022894 0.000504
v 0.114127 -0.022894 -0.064996
v 0.065628 -0.022894 -0.113496
v 0.000127 -0.022894 -0.130996
v -0.065373 -0.022894 -0.113496
v -0.113873 -0.022894 -0.064996
v -0.131372 -0.022894 0.000504
v -0.113873 -0.022894 0.066004
v -0.062872 -0.182894 0.110004
v 0.000127 -0.182894 0.127004
v 0.063128 -0.182894 0.110004
v 0.109628 -0.182894 0.063504
v 0.126627 -0.182894 0.000504
v 0.109628 -0.182894 -0.062496
v 0.063128 -0.182894 -0.108996
v 0.000127 -0.182894 -0.125996
v -0.062872 -0.182894 -0.108996
v -0.109373 -0.182894 -0.062496
v -0.126373 -0.182894 0.000504
v -0.109373 -0.182894 0.063504
v -0.059873 -0.277894 0.104504
v 0.000127 -0.277894 0.120504
v 0.060127 -0.277894 0.104504
v 0.104127 -0.277894 0.060504
v 0.120127 -0.277894 0.000504
v 0.104127 -0.277894 -0.059496
v 0.060127 -0.277894 -0.103496
v 0.000127 -0.277894 -0.119496
v -0.059873 -0.277894 -0.103496
v -0.103873 -0.277894 -0.059496
v -0.119872 -0.277894 0.000504
v -0.103873 -0.277894 0.060504
v -0.048372 -0.457894 0.084504
v 0.000127 -0.457894 0.097504
v 0.048627 -0.457894 0.084504
v 0.084127 -0.457894 0.049004
v 0.097127 -0.457894 0.000504
v 0.084127 -0.457894 -0.047996
v 0.048627 -0.457894 -0.083496
v 0.000127 -0.457894 -0.096496
v -0.048372 -0.457894 -0.083496
v -0.083873 -0.457894 -0.047996
v -0.096873 -0.457894 0.000504
v -0.083873 -0.457894 0.049004
v -0.041873 -0.470394 0.073004
v 0.000127 -0.470394 0.084504
v 0.042128 -0.470394 0.073004
v 0.072627 -0.470394 0.042504
v 0.084127 -0.470394 0.000504
v 0.072627 -0.470394 -0.041496
v 0.042128 -0.470394 -0.071996
v 0.000127 -0.470394 -0.083496
v -0.041873 -0.470394 -0.071996
v -0.072373 -0.470394 -0.041496
v -0.083873 -0.470394 0.000504
v -0.072373 -0.470394 0.042504
v 0.000127 -0.470394 0.000504
v 0.000127 -0.470394 0.042504
v 0.000127 -0.470394 0.073004
v 0.000127 -0.470394 -0.071996
v 0.000127 -0.470394 -0.041496
# 190 vertices

vt 0.000000 1.000000
# 1 texture coordinates

vn 0.830163 0.297447 -0.471545
vn 0.823333 -0.295545 -0.484537
vn 0.955802 -0.293896 -0.008215
vn 0.955801 0.293900 0.008215
vn 0.830164 -0.297444 0.471546
vn 0.823332 0.295549 0.484536
vn 0.484537 -0.295548 0.823332
vn 0.471545 0.297448 0.830162
vn -0.000000 -0.193594 0.981082
vn -0.000000 0.390797 0.920477
vn -0.484536 -0.295550 0.823331
vn -0.471544 0.297451 0.830162
vn -0.830162 -0.297448 0.471546
vn -0.823331 0.295551 0.484537
vn -0.955801 -0.293898 -0.008216
vn -0.955800 0.293902 0.008216
vn -0.823332 -0.295548 -0.484537
vn -0.830161 0.297452 -0.471545
vn -0.471545 -0.297448 -0.830163
vn -0.484536 0.295553 -0.823330
vn -0.000000 -0.390792 -0.920479
vn -0.000000 0.193597 -0.981081
vn 0.471546 -0.297445 -0.830163
vn 0.484537 0.295552 -0.823331
vn 0.833165 -0.286523 -0.473013
vn 0.959065 -0.283061 0.008422
vn 0.826404 -0.284623 0.485846
vn 0.473013 -0.286524 0.833164
vn -0.000000 -0.384176 0.923260
vn -0.473012 -0.286527 0.833164
vn -0.826403 -0.284626 0.485846
vn -0.959065 -0.283062 0.008422
vn -0.833164 -0.286527 -0.473012
vn -0.485846 -0.284628 -0.826402
vn -0.000000 -0.178360 -0.983965
vn 0.485847 -0.284626 -0.826402
vn 0.864239 0.046656 -0.500914
vn 0.998915 0.046560 -0.000077
vn 0.864350 0.046361 0.500750
vn 0.500914 0.046656 0.864238
vn -0.000000 0.039090 0.999236
vn -0.500914 0.046656 0.864238
vn -0.864350 0.046362 0.500749
vn -0.998915 0.046561 -0.000076
vn -0.864238 0.046657 -0.500914
vn -0.500750 0.046362 -0.864350
vn -0.000000 0.054029 -0.998539
vn 0.500750 0.046362 -0.864350
vn 0.861447 0.103957 -0.497093
vn 0.994530 0.104438 -0.001459
vn 0.861164 0.103933 0.497589
vn 0.497093 0.103957 0.861447
vn -0.000000 0.092886 0.995677
vn -0.497094 0.103957 0.861447
vn -0.861164 0.103933 0.497589
vn -0.994530 0.104437 -0.001459
vn -0.861447 0.103957 -0.497093
vn -0.497589 0.103933 -0.861164
vn -0.000000 0.115966 -0.993253
vn 0.497589 0.103933 -0.861164
vn 0.856156 0.151747 -0.493933
vn 0.988391 0.151930 0.000038
vn 0.856409 0.152001 0.493416
vn 0.493933 0.151746 0.856156
vn -0.000000 0.147267 0.989097
vn -0.493933 0.151746 0.856156
vn -0.856409 0.152000 0.493416
vn -0.988391 0.151930 0.000039
vn -0.856156 0.151746 -0.493934
vn -0.493417 0.152000 -0.856409
vn -0.000000 0.156590 -0.987664
vn 0.493417 0.152000 -0.856409
vn 0.853321 0.178267 -0.489964
vn 0.983932 0.178524 -0.002637
vn 0.852360 0.177811 0.491798
vn 0.489966 0.178267 0.853320
vn -0.000000 0.174531 0.984652
vn -0.489965 0.178267 0.853320
vn -0.852360 0.177811 0.491798
vn -0.983932 0.178524 -0.002636
vn -0.853320 0.178267 -0.489966
vn -0.491800 0.177811 -0.852359
vn 0.000000 0.182510 -0.983204
vn 0.491799 0.177811 -0.852360
vn 0.786929 0.414037 -0.457510
vn 0.912605 0.408762 -0.008151
vn 0.793599 0.418021 0.442108
vn 0.457512 0.414038 0.786928
vn 0.000001 0.335466 0.942052
vn -0.457512 0.414038 0.786927
vn -0.793599 0.418021 0.442108
vn -0.912604 0.408763 -0.008150
vn -0.786929 0.414037 -0.457512
vn -0.442109 0.418022 -0.793598
vn 0.000001 0.479299 -0.877652
vn 0.442108 0.418022 -0.793599
vn 0.538684 0.775595 -0.329047
vn 0.637027 0.770739 -0.012563
vn 0.558900 0.772092 0.302496
vn 0.329046 0.775594 0.538686
vn 0.000001 0.720369 0.693591
vn -0.329047 0.775594 0.538685
vn -0.558901 0.772092 0.302496
vn -0.637026 0.770740 -0.012564
vn -0.538684 0.775595 -0.329047
vn -0.302497 0.772093 -0.558899
vn 0.000001 0.816671 -0.577104
vn 0.302495 0.772093 -0.558900
vn 0.189358 0.972724 -0.133981
vn 0.228679 0.973286 -0.020494
vn 0.209130 0.972972 0.097928
vn 0.160700 0.960516 0.227122
vn 0.000001 0.952575 0.304303
vn -0.160701 0.960516 0.227120
vn -0.209130 0.972972 0.097927
vn -0.228678 0.973286 -0.020494
vn -0.189360 0.972724 -0.133980
vn -0.097929 0.972972 -0.209130
vn 0.000001 0.973449 -0.228902
vn 0.097929 0.972972 -0.209130
vn 0.000000 1.000000 0.000000
vn -0.834538 0.282304 0.473129
vn -0.486469 0.280396 0.827482
vn -0.000000 0.172427 0.985022
vn 0.486469 0.280394 0.827482
vn 0.834539 0.282300 0.473129
vn 0.960343 0.278712 -0.007840
vn 0.827484 0.280391 -0.486469
vn 0.473130 0.282301 -0.834538
vn -0.000000 0.381406 -0.924408
vn -0.473129 0.282304 -0.834538
vn -0.827483 0.280394 -0.486469
vn -0.960342 0.278713 -0.007840
vn -0.864736 -0.049355 0.499795
vn -0.499753 -0.048748 0.864795
vn -0.000000 -0.055268 0.998472
vn 0.499753 -0.048748 0.864795
vn 0.864737 -0.049355 0.499795
vn 0.998769 -0.049607 0.000148
vn 0.864795 -0.048748 -0.499753
vn 0.499795 -0.049355 -0.864736
vn -0.000000 -0.043945 -0.999034
vn -0.499795 -0.049355 -0.864737
vn -0.864795 -0.048748 -0.499753
vn -0.998769 -0.049608 0.000149
vn -0.862059 -0.096388 0.497557
vn -0.497350 -0.096915 0.862119
vn 0.000000 -0.107417 0.994214
vn 0.497350 -0.096915 0.862119
vn 0.862059 -0.096389 0.497557
vn 0.995258 -0.097267 0.000526
vn 0.862119 -0.096915 -0.497351
vn 0.497557 -0.096389 -0.862059
vn 0.000000 -0.087104 -0.996199
vn -0.497557 -0.096388 -0.862059
vn -0.862120 -0.096916 -0.497350
vn -0.995258 -0.097267 0.000526
vn -0.764118 -0.454627 0.457644
vn -0.433085 -0.455591 0.777736
vn 0.000000 -0.555385 0.831594
vn 0.433085 -0.455591 0.777736
vn 0.764119 -0.454626 0.457643
vn 0.891196 -0.453435 0.012870
vn 0.777736 -0.455591 -0.433086
vn 0.457643 -0.454625 -0.764120
vn 0.000000 -0.344639 -0.938735
vn -0.457643 -0.454625 -0.764120
vn -0.777736 -0.455591 -0.433086
vn -0.891196 -0.453437 0.012869
vn -0.300920 -0.929676 0.212484
vn -0.187024 -0.896646 0.401309
vn 0.000000 -0.871161 0.490997
vn 0.187024 -0.896646 0.401309
vn 0.300920 -0.929676 0.212484
vn 0.368540 -0.929036 0.032700
vn 0.334928 -0.929226 -0.156087
vn 0.212484 -0.929676 -0.300920
vn 0.000000 -0.872898 -0.487902
vn -0.212484 -0.929676 -0.300920
vn -0.334927 -0.929226 -0.156088
vn -0.368539 -0.929037 0.032700
vn 0.000000 -1.000000 0.000000
# 182 normals

g default
s 1
f 12/1/1 24/1/2 13/1/3
f 12/1/1 13/1/3 1/1/4
f 1/1/4 13/1/3 14/1/5
f 1/1/4 14/1/5 2/1/6
f 2/1/6 14/1/5 15/1/7
f 2/1/6 15/1/7 3/1/8
f 3/1/8 15/1/7 16/1/9
f 3/1/8 16/1/9 4/1/10
f 16/1/9 17/1/11 5/1/12
f 16/1/9 5/1/12 4/1/10
f 17/1/11 18/1/13 6/1/14
f 17/1/11 6/1/14 5/1/12
f 18/1/13 19/1/15 7/1/16
f 18/1/13 7/1/16 6/1/14
f 19/1/15 20/1/17 8/1/18
f 19/1/15 8/1/18 7/1/16
f 20/1/17 21/1/19 9/1/20
f 20/1/17 9/1/20 8/1/18
f 21/1/19 22/1/21 10/1/22
f 21/1/19 10/1/22 9/1/20
f 10/1/22 22/1/21 23/1/23
f 10/1/22 23/1/23 11/1/24
f 11/1/24 23/1/23 24/1/2
f 11/1/24 24/1/2 12/1/1
f 24/1/2 36/1/25 25/1/26
f 24/1/2 25/1/26 13/1/3
f 13/1/3 25/1/26 26/1/27
f 13/1/3 26/1/27 14/1/5
f 14/1/5 26/1/27 27/1/28
f 14/1/5 27/1/28 15/1/7
f 15/1/7 27/1/28 28/1/29
f 15/1/7 28/1/29 16/1/9
f 28/1/29 29/1/30 17/1/11
f 28/1/29 17/1/11 16/1/9
f 29/1/30 30/1/31 18/1/13
f 29/1/30 18/1/13 17/1/11
f 30/1/31 31/1/32 19/1/15
f 30/1/31 19/1/15 18/1/13
f 31/1/32 32/1/33 20/1/17
f 31/1/32 20/1/17 19/1/15
f 32/1/33 33/1/34 21/1/19
f 32/1/33 21/1/19 20/1/17
f 33/1/34 34/1/35 22/1/21
f 33/1/34 22/1/21 21/1/19
f 22/1/21 34/1/35 35/1/36
f 22/1/21 35/1/36 23/1/23
f 23/1/23 35/1/36 36/1/25
f 23/1/23 36/1/25 24/1/2
f 36/1/25 48/1/37 37/1/38
f 36/1/25 37/1/38 25/1/26
f 25/1/26 37/1/38 38/1/39
f 25/1/26 38/1/39 26/1/27
f 26/1/27 38/1/39 39/1/40
f 26/1/27 39/1/40 27/1/28
f 27/1/28 39/1/40 40/1/41
f 27/1/28 40/1/41 28/1/29
f 40/1/41 41/1/42 29/1/30
f 40/1/41 29/1/30 28/1/29
f 41/1/42 42/1/43 30/1/31
f 41/1/42 30/1/31 29/1/30
f 42/1/43 43/1/44 31/1/32
f 42/1/43 31/1/32 30/1/31
f 43/1/44 44/1/45 32/1/33
f 43/1/44 32/1/33 31/1/32
f 44/1/45 45/1/46 33/1/34
f 44/1/45 33/1/34 32/1/33
f 45/1/46 46/1/47 34/1/35
f 45/1/46 34/1/35 33/1/34
f 34/1/35 46/1/47 47/1/48
f 34/1/35 47/1/48 35/1/36
f 35/1/36 47/1/48 48/1/37
f 35/1/36 48/1/37 36/1/25
f 48/1/37 60/1/49 49/1/50
f 48/1/37 49/1/50 37/1/38
f 37/1/38 49/1/50 50/1/51
f 37/1/38 50/1/51 38/1/39
f 38/1/39 50/1/51 51/1/52
f 38/1/39 51/1/52 39/1/40
f 39/1/40 51/1/52 52/1/53
f 39/1/40 52/1/53 40/1/41
f 52/1/53 53/1/54 41/1/42
f 52/1/53 41/1/42 40/1/41
f 53/1/54 54/1/55 42/1/43
f 53/1/54 42/1/43 41/1/42
f 54/1/55 55/1/56 43/1/44
f 54/1/55 43/1/44 42/1/43
f 55/1/56 56/1/57 44/1/45
f 55/1/56 44/1/45 43/1/44
f 56/1/57 57/1/58 45/1/46
f 56/1/57 45/1/46 44/1/45
f 57/1/58 58/1/59 46/1/47
f 57/1/58 46/1/47 45/1/46
f 46/1/47 58/1/59 59/1/60
f 46/1/47 59/1/60 47/1/48
f 47/1/48 59/1/60 60/1/49
f 47/1/48 60/1/49 48/1/37
f 60/1/49 72/1/61 61/1/62
f 60/1/49 61/1/62 49/1/50
f 49/1/50 61/1/62 62/1/63
f 49/1/50 62/1/63 50/1/51
f 50/1/51 62/1/63 63/1/64
f 50/1/51 63/1/64 51/1/52
f 51/1/52 63/1/64 64/1/65
f 51/1/52 64/1/65 52/1/53
f 64/1/65 65/1/66 53/1/54
f 64/1/65 53/1/54 52/1/53
f 65/1/66 66/1/67 54/1/55
f 65/1/66 54/1/55 53/1/54
f 66/1/67 67/1/68 55/1/56
f 66/1/67 55/1/56 54/1/55
f 67/1/68 68/1/69 56/1/57
f 67/1/68 56/1/57 55/1/56
f 68/1/69 69/1/70 57/1/58
f 68/1/69 57/1/58 56/1/57
f 69/1/70 70/1/71 58/1/59
f 69/1/70 58/1/59 57/1/58
f 58/1/59 70/1/71 71/1/72
f 58/1/59 71/1/72 59/1/60
f 59/1/60 71/1/72 72/1/61
f 59/1/60 72/1/61 60/1/49
f 72/1/61 84/1/73 73/1/74
f 72/1/61 73/1/74 61/1/62
f 61/1/62 73/1/74 74/1/75
f 61/1/62 74/1/75 62/1/63
f 62/1/63 74/1/75 75/1/76
f 62/1/63 75/1/76 63/1/64
f 63/1/64 75/1/76 76/1/77
f 63/1/64 76/1/77 64/1/65
f 76/1/77 77/1/78 65/1/66
f 76/1/77 65/1/66 64/1/65
f 77/1/78 78/1/79 66/1/67
f 77/1/78 66/1/67 65/1/66
f 78/1/79 79/1/80 67/1/68
f 78/1/79 67/1/68 66/1/67
f 79/1/80 80/1/81 68/1/69
f 79/1/80 68/1/69 67/1/68
f 80/1/81 81/1/82 69/1/70
f 80/1/81 69/1/70 68/1/69
f 81/1/82 82/1/83 70/1/71
f 81/1/82 70/1/71 69/1/70
f 70/1/71 82/1/83 83/1/84
f 70/1/71 83/1/84 71/1/72
f 71/1/72 83/1/84 84/1/73
f 71/1/72 84/1/73 72/1/61
f 84/1/73 96/1/85 85/1/86
f 84/1/73 85/1/86 73/1/74
f 73/1/74 85/1/86 86/1/87
f 73/1/74 86/1/87 74/1/75
f 74/1/75 86/1/87 87/1/88
f 74/1/75 87/1/88 75/1/76
f 75/1/76 87/1/88 88/1/89
f 75/1/76 88/1/89 76/1/77
f 88/1/89 89/1/90 77/1/78
f 88/1/89 77/1/78 76/1/77
f 89/1/90 90/1/91 78/1/79
f 89/1/90 78/1/79 77/1/78
f 90/1/91 91/1/92 79/1/80
f 90/1/91 79/1/80 78/1/79
f 91/1/92 92/1/93 80/1/81
f 91/1/92 80/1/81 79/1/80
f 92/1/93 93/1/94 81/1/82
f 92/1/93 81/1/82 80/1/81
f 93/1/94 94/1/95 82/1/83
f 93/1/94 82/1/83 81/1/82
f 82/1/83 94/1/95 95/1/96
f 82/1/83 95/1/96 83/1/84
f 83/1/84 95/1/96 96/1/85
f 83/1/84 96/1/85 84/1/73
f 96/1/85 108/1/97 97/1/98
f 96/1/85 97/1/98 85/1/86
f 85/1/86 97/1/98 98/1/99
f 85/1/86 98/1/99 86/1/87
f 86/1/87 98/1/99 99/1/100
f 86/1/87 99/1/100 87/1/88
f 87/1/88 99/1/100 100/1/101
f 87/1/88 100/1/101 88/1/89
f 100/1/101 101/1/102 89/1/90
f 100/1/101 89/1/90 88/1/89
f 101/1/102 102/1/103 90/1/91
f 101/1/102 90/1/91 89/1/90
f 102/1/103 103/1/104 91/1/92
f 102/1/103 91/1/92 90/1/91
f 103/1/104 104/1/105 92/1/93
f 103/1/104 92/1/93 91/1/92
f 104/1/105 105/1/106 93/1/94
f 104/1/105 93/1/94 92/1/93
f 105/1/106 106/1/107 94/1/95
f 105/1/106 94/1/95 93/1/94
f 94/1/95 106/1/107 107/1/108
f 94/1/95 107/1/108 95/1/96
f 95/1/96 107/1/108 108/1/97
f 95/1/96 108/1/97 96/1/85
f 108/1/97 120/1/109 109/1/110
f 108/1/97 109/1/110 97/1/98
f 97/1/98 109/1/110 110/1/111
f 97/1/98 110/1/111 98/1/99
f 98/1/99 110/1/111 111/1/112
f 98/1/99 111/1/112 99/1/100
f 99/1/100 111/1/112 112/1/113
f 99/1/100 112/1/113 100/1/101
f 112/1/113 113/1/114 101/1/102
f 112/1/113 101/1/102 100/1/101
f 113/1/114 114/1/115 102/1/103
f 113/1/114 102/1/103 101/1/102
f 114/1/115 115/1/116 103/1/104
f 114/1/115 103/1/104 102/1/103
f 115/1/116 116/1/117 104/1/105
f 115/1/116 104/1/105 103/1/104
f 116/1/117 117/1/118 105/1/106
f 116/1/117 105/1/106 104/1/105
f 117/1/118 118/1/119 106/1/107
f 117/1/118 106/1/107 105/1/106
f 106/1/107 118/1/119 119/1/120
f 106/1/107 119/1/120 107/1/108
f 107/1/108 119/1/120 120/1/109
f 107/1/108 120/1/109 108/1/97
f 124/1/121 123/1/121 117/1/118
f 124/1/121 117/1/118 116/1/117
f 121/1/121 124/1/121 116/1/117
f 121/1/121 116/1/117 115/1/116
f 122/1/121 121/1/121 115/1/116
f 122/1/121 115/1/116 114/1/115
f 125/1/121 122/1/121 114/1/115
f 125/1/121 114/1/115 113/1/114
f 119/1/120 123/1/121 124/1/121
f 119/1/120 124/1/121 120/1/109
f 120/1/109 124/1/121 121/1/121
f 120/1/109 121/1/121 109/1/110
f 109/1/110 121/1/121 122/1/121
f 109/1/110 122/1/121 110/1/111
f 110/1/111 122/1/121 125/1/121
f 110/1/111 125/1/121 111/1/112
f 123/1/121 119/1/120 118/1/119
f 123/1/121 118/1/119 117/1/118
f 112/1/113 111/1/112 125/1/121
f 112/1/113 125/1/121 113/1/114
f 5/1/12 6/1/14 137/1/122
f 5/1/12 137/1/122 126/1/123
f 4/1/10 5/1/12 126/1/123
f 4/1/10 126/1/123 127/1/124
f 128/1/125 3/1/8 4/1/10
f 128/1/125 4/1/10 127/1/124
f 129/1/126 2/1/6 3/1/8
f 129/1/126 3/1/8 128/1/125
f 130/1/127 1/1/4 2/1/6
f 130/1/127 2/1/6 129/1/126
f 131/1/128 12/1/1 1/1/4
f 131/1/128 1/1/4 130/1/127
f 132/1/129 11/1/24 12/1/1
f 132/1/129 12/1/1 131/1/128
f 133/1/130 10/1/22 11/1/24
f 133/1/130 11/1/24 132/1/129
f 9/1/20 10/1/22 133/1/130
f 9/1/20 133/1/130 134/1/131
f 8/1/18 9/1/20 134/1/131
f 8/1/18 134/1/131 135/1/132
f 7/1/16 8/1/18 135/1/132
f 7/1/16 135/1/132 136/1/133
f 6/1/14 7/1/16 136/1/133
f 6/1/14 136/1/133 137/1/122
f 126/1/123 137/1/122 149/1/134
f 126/1/123 149/1/134 138/1/135
f 127/1/124 126/1/123 138/1/135
f 127/1/124 138/1/135 139/1/136
f 140/1/137 128/1/125 127/1/124
f 140/1/137 127/1/124 139/1/136
f 141/1/138 129/1/126 128/1/125
f 141/1/138 128/1/125 140/1/137
f 142/1/139 130/1/127 129/1/126
f 142/1/139 129/1/126 141/1/138
f 143/1/140 131/1/128 130/1/127
f 143/1/140 130/1/127 142/1/139
f 144/1/141 132/1/129 131/1/128
f 144/1/141 131/1/128 143/1/140
f 145/1/142 133/1/130 132/1/129
f 145/1/142 132/1/129 144/1/141
f 134/1/131 133/1/130 145/1/142
f 134/1/131 145/1/142 146/1/143
f 135/1/132 134/1/131 146/1/143
f 135/1/132 146/1/143 147/1/144
f 136/1/133 135/1/132 147/1/144
f 136/1/133 147/1/144 148/1/145
f 137/1/122 136/1/133 148/1/145
f 137/1/122 148/1/145 149/1/134
f 138/1/135 149/1/134 161/1/146
f 138/1/135 161/1/146 150/1/147
f 139/1/136 138/1/135 150/1/147
f 139/1/136 150/1/147 151/1/148
f 152/1/149 140/1/137 139/1/136
f 152/1/149 139/1/136 151/1/148
f 153/1/150 141/1/138 140/1/137
f 153/1/150 140/1/137 152/1/149
f 154/1/151 142/1/139 141/1/138
f 154/1/151 141/1/138 153/1/150
f 155/1/152 143/1/140 142/1/139
f 155/1/152 142/1/139 154/1/151
f 156/1/153 144/1/141 143/1/140
f 156/1/153 143/1/140 155/1/152
f 157/1/154 145/1/142 144/1/141
f 157/1/154 144/1/141 156/1/153
f 146/1/143 145/1/142 157/1/154
f 146/1/143 157/1/154 158/1/155
f 147/1/144 146/1/143 158/1/155
f 147/1/144 158/1/155 159/1/156
f 148/1/145 147/1/144 159/1/156
f 148/1/145 159/1/156 160/1/157
f 149/1/134 148/1/145 160/1/157
f 149/1/134 160/1/157 161/1/146
f 150/1/147 161/1/146 173/1/158
f 150/1/147 173/1/158 162/1/159
f 151/1/148 150/1/147 162/1/159
f 151/1/148 162/1/159 163/1/160
f 164/1/161 152/1/149 151/1/148
f 164/1/161 151/1/148 163/1/160
f 165/1/162 153/1/150 152/1/149
f 165/1/162 152/1/149 164/1/161
f 166/1/163 154/1/151 153/1/150
f 166/1/163 153/1/150 165/1/162
f 167/1/164 155/1/152 154/1/151
f 167/1/164 154/1/151 166/1/163
f 168/1/165 156/1/153 155/1/152
f 168/1/165 155/1/152 167/1/164
f 169/1/166 157/1/154 156/1/153
f 169/1/166 156/1/153 168/1/165
f 158/1/155 157/1/154 169/1/166
f 158/1/155 169/1/166 170/1/167
f 159/1/156 158/1/155 170/1/167
f 159/1/156 170/1/167 171/1/168
f 160/1/157 159/1/156 171/1/168
f 160/1/157 171/1/168 172/1/169
f 161/1/146 160/1/157 172/1/169
f 161/1/146 172/1/169 173/1/158
f 162/1/159 173/1/158 185/1/170
f 162/1/159 185/1/170 174/1/171
f 163/1/160 162/1/159 174/1/171
f 163/1/160 174/1/171 175/1/172
f 176/1/173 164/1/161 163/1/160
f 176/1/173 163/1/160 175/1/172
f 177/1/174 165/1/162 164/1/161
f 177/1/174 164/1/161 176/1/173
f 178/1/175 166/1/163 165/1/162
f 178/1/175 165/1/162 177/1/174
f 179/1/176 167/1/164 166/1/163
f 179/1/176 166/1/163 178/1/175
f 180/1/177 168/1/165 167/1/164
f 180/1/177 167/1/164 179/1/176
f 181/1/178 169/1/166 168/1/165
f 181/1/178 168/1/165 180/1/177
f 170/1/167 169/1/166 181/1/178
f 170/1/167 181/1/178 182/1/179
f 171/1/168 170/1/167 182/1/179
f 171/1/168 182/1/179 183/1/180
f 172/1/169 171/1/168 183/1/180
f 172/1/169 183/1/180 184/1/181
f 173/1/158 172/1/169 184/1/181
f 173/1/158 184/1/181 185/1/170
f 182/1/179 189/1/182 190/1/182
f 182/1/179 190/1/182 183/1/180
f 183/1/180 190/1/182 186/1/182
f 183/1/180 186/1/182 184/1/181
f 184/1/181 186/1/182 187/1/182
f 184/1/181 187/1/182 185/1/170
f 185/1/170 187/1/182 188/1/182
f 185/1/170 188/1/182 174/1/171
f 190/1/182 189/1/182 180/1/177
f 190/1/182 180/1/177 179/1/176
f 186/1/182 190/1/182 179/1/176
f 186/1/182 179/1/176 178/1/175
f 187/1/182 186/1/182 178/1/175
f 187/1/182 178/1/175 177/1/174
f 188/1/182 187/1/182 177/1/174
f 188/1/182 177/1/174 176/1/173
f 189/1/182 182/1/179 181/1/178
f 189/1/182 181/1/178 180/1/177
f 174/1/171 188/1/182 176/1/173
f 174/1/171 176/1/173 175/1/172
# 376 triangles in group

# 376 triangles total

